<?xml version="1.0" encoding="utf-8"?>
<!-- Generator: Adobe Illustrator 24.0.0, SVG Export Plug-In . SVG Version: 6.00 Build 0)  -->
<svg version="1.1" id="Layer_2" xmlns="http://www.w3.org/2000/svg" xmlns:xlink="http://www.w3.org/1999/xlink" x="0px" y="0px"
	 viewBox="0 0 72 72" style="enable-background:new 0 0 72 72;" xml:space="preserve">
<style type="text/css">
	.st0{fill:#FFFFFF;}
</style>
<g>
	<path class="st0" d="M36,1.4c0.9,0,1.8,0,2.7,0c0.7,0,1.4,0.1,2.1,0.2c0.7,0.1,1.4,0.2,2,0.3c0.3,0.1,0.7,0.2,1,0.2
		c0.3,0.1,0.5,0.1,0.8,0.2c0.4,0.1,0.7,0.2,1.1,0.3c0.5,0.1,0.9,0.3,1.4,0.5c0.4,0.1,0.8,0.3,1.2,0.4c0.6,0.2,1.1,0.4,1.6,0.7
		c0.4,0.2,0.9,0.4,1.3,0.6c0.4,0.2,0.8,0.4,1.2,0.6c0.4,0.2,0.8,0.4,1.1,0.6c0.4,0.3,0.9,0.5,1.3,0.8c0.5,0.3,1,0.7,1.4,1
		c0.4,0.3,0.9,0.6,1.3,1c0.7,0.5,1.3,1.1,2,1.7c0.7,0.6,1.3,1.2,1.9,1.9c0.5,0.6,1,1.1,1.5,1.7c0.5,0.7,1,1.4,1.5,2.1
		c0.4,0.6,0.8,1.2,1.2,1.8c0.3,0.4,0.5,0.9,0.8,1.3c0.3,0.5,0.6,1,0.8,1.6c0.1,0.3,0.3,0.6,0.4,0.9c0.2,0.4,0.3,0.7,0.5,1.1
		c0.1,0.4,0.3,0.7,0.4,1.1c0.2,0.4,0.3,0.9,0.5,1.3c0.1,0.3,0.2,0.6,0.3,0.9c0.1,0.5,0.3,1,0.4,1.5c0.1,0.4,0.2,0.8,0.3,1.2
		c0.2,0.8,0.3,1.7,0.5,2.5c0.1,0.7,0.2,1.5,0.3,2.2c0.2,1.4,0.2,2.9,0.1,4.4c0,0.7-0.1,1.3-0.2,2c-0.1,0.5-0.1,1.1-0.2,1.6
		c-0.1,0.8-0.3,1.6-0.4,2.4c-0.2,0.7-0.3,1.4-0.5,2.1c-0.2,0.6-0.4,1.3-0.6,1.9c-0.1,0.4-0.3,0.8-0.4,1.2c-0.2,0.5-0.4,1-0.6,1.5
		c-0.1,0.3-0.3,0.6-0.4,0.9c-0.1,0.3-0.3,0.6-0.5,0.9c-0.2,0.4-0.4,0.8-0.6,1.2c-0.3,0.5-0.5,0.9-0.8,1.4c-0.2,0.4-0.5,0.8-0.8,1.2
		c-0.4,0.6-0.9,1.2-1.3,1.8C63,58.4,62.5,59,62,59.5c-0.6,0.7-1.3,1.4-2,2c-0.6,0.6-1.3,1.2-1.9,1.7c-0.6,0.5-1.2,0.9-1.8,1.4
		c-0.6,0.4-1.2,0.8-1.7,1.2c-0.4,0.3-0.9,0.5-1.3,0.8c-0.5,0.3-1,0.6-1.5,0.8c-0.4,0.2-0.9,0.4-1.3,0.6c-0.3,0.1-0.6,0.3-1,0.4
		c-0.4,0.2-0.8,0.3-1.2,0.5c-0.6,0.2-1.3,0.4-1.9,0.7c-0.2,0.1-0.4,0.1-0.6,0.2c-0.6,0.1-1.2,0.3-1.8,0.4c-0.4,0.1-0.7,0.2-1.1,0.3
		c-0.4,0.1-0.8,0.1-1.2,0.2c-0.8,0.1-1.7,0.2-2.5,0.3c-1.7,0.2-3.4,0.3-5,0.2c-0.7,0-1.3-0.1-2-0.2c-0.5-0.1-0.9-0.1-1.4-0.2
		c-0.6-0.1-1.2-0.2-1.8-0.3c-0.3-0.1-0.7-0.2-1-0.2c-0.3-0.1-0.5-0.1-0.8-0.2c-0.4-0.1-0.7-0.2-1.1-0.3c-0.5-0.1-0.9-0.3-1.4-0.4
		c-0.4-0.1-0.8-0.3-1.2-0.4c-0.6-0.2-1.1-0.4-1.6-0.7c-0.4-0.2-0.9-0.4-1.3-0.6c-0.4-0.2-0.8-0.4-1.3-0.7c-0.4-0.2-0.7-0.4-1.1-0.6
		c-0.3-0.2-0.7-0.4-1-0.6c-0.3-0.2-0.6-0.4-0.9-0.6c-0.6-0.4-1.2-0.9-1.8-1.4c-0.6-0.4-1.1-0.9-1.7-1.4c-0.8-0.7-1.5-1.4-2.2-2.2
		C10,59.6,9.4,59,8.9,58.3c-0.5-0.7-1-1.3-1.5-2c-0.4-0.6-0.8-1.2-1.2-1.8c-0.3-0.4-0.5-0.9-0.8-1.4c-0.3-0.5-0.6-1-0.8-1.6
		c-0.2-0.3-0.3-0.6-0.4-0.9c-0.1-0.3-0.3-0.6-0.4-1c-0.2-0.4-0.3-0.7-0.4-1.1c-0.2-0.4-0.3-0.9-0.5-1.4c-0.1-0.3-0.2-0.6-0.3-0.9
		c-0.1-0.5-0.3-1-0.4-1.5C2,44.4,1.9,44,1.8,43.6c-0.1-0.4-0.2-0.8-0.2-1.2c-0.3-1.7-0.5-3.4-0.5-5.2c0-1.3,0-2.5,0-3.8
		c0-0.7,0.1-1.5,0.2-2.2c0.1-0.6,0.2-1.2,0.3-1.8c0.1-0.3,0.2-0.7,0.2-1C2,28,2,27.7,2.1,27.4c0.2-0.8,0.5-1.6,0.7-2.4
		c0.2-0.6,0.4-1.1,0.6-1.7c0.2-0.5,0.4-1,0.6-1.5c0.1-0.3,0.3-0.6,0.4-0.9c0.1-0.3,0.3-0.6,0.5-0.9c0.2-0.4,0.4-0.8,0.7-1.2
		c0.3-0.5,0.5-0.9,0.8-1.4c0.2-0.4,0.5-0.8,0.8-1.2c0.5-0.6,0.9-1.3,1.4-1.9c0.5-0.7,1-1.3,1.6-1.9c0.8-0.8,1.6-1.7,2.5-2.5
		c0.8-0.7,1.7-1.4,2.5-2.1c0.6-0.5,1.3-0.9,2-1.3c0.6-0.4,1.3-0.8,2-1.2c0.6-0.4,1.3-0.7,2-1c0.5-0.2,0.9-0.4,1.4-0.6
		c0.5-0.2,1.1-0.4,1.7-0.6c0.4-0.2,0.9-0.3,1.3-0.4c0.3-0.1,0.5-0.2,0.8-0.2c0.3-0.1,0.6-0.2,1-0.3c0.4-0.1,0.8-0.2,1.3-0.3
		c0.8-0.2,1.7-0.3,2.5-0.5c0.9-0.1,1.8-0.3,2.6-0.2C34.5,1.3,35.2,1.3,36,1.4C36,1.3,36,1.4,36,1.4z M31.4,40.8
		C31.4,40.8,31.3,40.8,31.4,40.8c-0.1,4.1-0.1,8.2-0.1,12.3c0,0.3,0,0.3,0.3,0.3c2.6,0,5.2,0,7.8,0c0.3,0,0.3-0.1,0.3-0.3
		c0-2.9,0-5.8,0-8.7c0-1.8,0-3.5,0-5.3c0-0.7,0.1-1.3,0.4-2c0.1-0.3,0.3-0.6,0.5-0.9c0.2-0.3,0.5-0.7,0.8-0.9
		c0.3-0.2,0.6-0.4,0.9-0.6c0.2-0.1,0.4-0.2,0.7-0.3c0.5-0.2,1-0.2,1.5-0.2c0.4,0,0.9,0.1,1.3,0.2c0.4,0.2,0.8,0.4,1.1,0.7
		c0.3,0.3,0.6,0.6,0.8,1c0.2,0.4,0.3,0.7,0.4,1.1c0.3,1,0.3,1.9,0.3,2.9c0,4.3,0,8.6,0,12.8c0,0.3,0,0.3,0.3,0.3c2.6,0,5.1,0,7.7,0
		c0.3,0,0.3,0,0.3-0.3c0-4.6,0-9.3,0-13.9c0-0.6,0-1.3-0.1-1.9c-0.1-0.6-0.2-1.3-0.3-1.9c-0.1-0.5-0.2-0.9-0.4-1.4
		c-0.1-0.3-0.2-0.7-0.4-1c-0.1-0.3-0.3-0.6-0.4-0.9c-0.3-0.5-0.6-0.9-1-1.4c-0.6-0.8-1.4-1.4-2.2-1.9c-0.5-0.3-1.1-0.5-1.7-0.7
		c-0.6-0.2-1.2-0.3-1.7-0.4c-0.8-0.1-1.7,0-2.5,0c-0.2,0-0.4,0-0.6,0.1C45,28,44.4,28,43.9,28.3c-0.2,0.1-0.4,0.1-0.6,0.2
		c-0.6,0.3-1.2,0.7-1.7,1.1c-0.6,0.6-1.2,1.2-1.7,1.9c0,0-0.1,0.1-0.1,0.1c0-0.1-0.1-0.1-0.1-0.2c0,0,0-0.1,0-0.1c0-0.9,0-1.8,0-2.8
		c0-0.3,0-0.3-0.3-0.3c-2.6,0-5.2,0-7.8,0c-0.3,0-0.3,0-0.3,0.3c0,1.8,0.1,3.6,0.1,5.5C31.4,36.3,31.4,38.6,31.4,40.8z M18.3,40.8
		c0,4.1,0,8.2,0,12.2c0,0.3,0.1,0.4,0.4,0.4c2.6,0,5.1,0,7.7,0c0.1,0,0.2,0,0.2-0.2c0-0.2,0-0.3,0-0.5c0-8,0-15.9,0-23.9
		c0-0.1,0-0.3,0-0.4c0-0.2,0-0.3-0.3-0.3c-2.6,0-5.1,0-7.7,0c-0.3,0-0.3,0-0.3,0.3C18.3,32.7,18.3,36.8,18.3,40.8z M22.6,24.9
		c0.3,0,0.7,0,1-0.1c0.4-0.1,0.9-0.2,1.3-0.4c0.4-0.2,0.8-0.5,1.2-0.8c0.5-0.5,0.8-1,1-1.6c0.3-0.8,0.3-1.7,0.1-2.5
		c-0.1-0.4-0.2-0.9-0.5-1.2c-0.2-0.3-0.4-0.6-0.7-0.9c-0.4-0.4-0.8-0.7-1.3-0.8c-0.3-0.1-0.7-0.2-1-0.3c-0.6-0.1-1.2-0.1-1.8,0
		c-0.4,0.1-0.7,0.1-1.1,0.3c-0.4,0.2-0.9,0.3-1.2,0.7c-0.3,0.3-0.7,0.6-0.9,1c-0.4,0.5-0.6,1.2-0.7,1.8c-0.1,1.2,0.1,2.2,0.8,3.2
		c0.5,0.6,1.1,1.1,1.8,1.4C21.1,24.8,21.8,24.9,22.6,24.9z"/>
</g>
</svg>
